<?xml version="1.0" standalone="no"?>
<!DOCTYPE svg PUBLIC "-//W3C//DTD SVG 20010904//EN"
 "http://www.w3.org/TR/2001/REC-SVG-20010904/DTD/svg10.dtd">
<svg version="1.0" xmlns="http://www.w3.org/2000/svg"
 width="564.000000pt" height="564.000000pt" viewBox="0 0 564.000000 564.000000"
 preserveAspectRatio="xMidYMid meet">

<g transform="translate(0.000000,564.000000) scale(0.100000,-0.100000)"
fill="#000000" stroke="none">
<path d="M2657 4739 c-127 -10 -199 -32 -243 -72 -33 -30 -36 -39 -50 -127
-34 -227 -11 -406 102 -810 22 -79 34 -271 25 -402 -7 -93 -13 -122 -35 -165
-36 -72 -36 -149 -1 -192 49 -57 117 -74 320 -79 261 -6 378 24 411 104 21 50
17 89 -17 167 -29 66 -32 81 -37 216 -6 179 6 276 59 469 62 231 82 351 82
487 1 166 -18 288 -50 325 -34 40 -128 68 -272 80 -129 11 -154 11 -294 -1z
m399 -50 c84 -14 136 -45 151 -91 20 -61 32 -254 22 -353 -12 -118 -21 -162
-82 -400 l-52 -200 0 -210 0 -210 33 -72 c37 -83 40 -120 11 -157 -38 -48
-109 -61 -334 -60 -214 0 -262 9 -312 56 -32 30 -30 90 3 163 54 117 53 414
-1 620 -104 395 -122 529 -95 732 18 130 30 146 130 173 106 29 379 33 526 9z"/>
<path d="M2605 4659 c-119 -18 -150 -37 -160 -104 l-7 -40 67 -2 c58 -1 69 2
90 23 35 35 96 34 124 -2 26 -33 27 -74 1 -106 -10 -14 -16 -28 -13 -32 3 -3
49 -6 101 -6 75 0 99 4 114 17 10 9 27 17 37 18 10 0 30 11 46 23 51 41 121
21 141 -40 3 -11 15 -18 30 -18 25 0 25 1 19 58 -3 31 -11 81 -17 110 -9 50
-13 55 -51 72 -23 10 -77 23 -120 29 -91 13 -315 13 -402 0z"/>
<path d="M2622 4524 c-42 -29 -18 -104 35 -104 49 0 72 76 31 104 -12 9 -27
16 -33 16 -6 0 -21 -7 -33 -16z"/>
<path d="M2547 4362 c-22 -24 -21 -45 1 -65 37 -34 82 -15 82 35 0 45 -53 64
-83 30z m62 -16 c17 -20 2 -46 -25 -46 -26 0 -40 20 -30 45 7 19 40 20 55 1z"/>
<path d="M2455 4088 c4 -24 23 -104 42 -178 57 -219 70 -284 78 -387 6 -88 -5
-266 -21 -327 -4 -19 0 -25 26 -36 18 -7 34 -9 39 -4 20 23 44 215 43 344 -1
157 -18 278 -69 483 l-37 147 -54 0 -54 0 7 -42z"/>
<path d="M2665 4103 c3 -16 14 -77 25 -138 55 -309 52 -547 -10 -748 -12 -38
-19 -72 -15 -75 25 -26 278 -17 361 12 l39 13 -5 69 c-3 38 -5 146 -4 239 1
158 3 178 33 285 17 63 43 165 57 225 14 61 27 118 30 128 5 16 -12 17 -255
17 l-260 0 4 -27z"/>
<path d="M2196 3808 c-3 -50 -6 -113 -6 -140 0 -29 -4 -48 -11 -48 -6 0 -63
27 -126 61 -63 34 -116 59 -119 56 -2 -2 5 -63 17 -136 12 -72 20 -133 18
-136 -3 -2 -62 12 -133 31 -70 20 -130 34 -132 31 -3 -3 17 -63 45 -133 l50
-127 -146 7 -145 7 19 -28 c72 -103 133 -206 126 -213 -4 -4 -65 -15 -136 -25
-70 -10 -126 -22 -125 -27 2 -4 46 -55 98 -113 l94 -105 1227 0 1226 0 102
109 c55 60 101 111 101 114 0 2 -60 12 -132 22 -73 10 -136 21 -140 24 -4 4
26 57 67 119 41 61 75 114 75 117 0 3 -64 3 -141 -1 -136 -7 -141 -6 -135 12
3 10 26 69 50 129 25 61 41 111 36 113 -4 2 -65 -13 -135 -33 -70 -20 -129
-34 -131 -32 -2 2 7 65 20 140 13 75 20 137 17 137 -3 -1 -61 -29 -128 -63
l-121 -63 -6 51 c-3 27 -6 89 -7 138 -1 48 -4 89 -8 91 -3 2 -49 -32 -101 -76
-52 -44 -104 -83 -116 -88 -22 -9 -26 -25 -39 -145 l-7 -60 113 -57 c244 -122
415 -305 514 -551 19 -48 35 -91 35 -97 0 -7 -332 -10 -1005 -10 -835 0 -1005
2 -1005 13 0 49 74 208 142 304 110 157 305 314 458 369 l50 18 0 51 c0 71
-20 165 -35 165 -7 0 -41 24 -77 53 -35 28 -82 66 -104 84 l-41 32 -7 -91z
m1112 -183 c-23 -54 -44 -93 -46 -87 -3 11 78 195 84 189 2 -2 -15 -48 -38
-102z m-938 -89 c0 -6 -3 -6 -9 0 -10 9 -82 174 -80 184 1 8 89 -173 89 -184z
m15 26 c-5 -6 -49 88 -59 128 -3 14 10 -8 29 -49 19 -41 33 -76 30 -79z m11
51 c-3 -4 -13 10 -21 30 -21 51 -18 59 6 14 11 -22 18 -41 15 -44z m935 -8
c-17 -38 -34 -66 -37 -63 -3 3 10 35 28 72 42 85 48 78 9 -9z m-1232 -84 c39
-52 69 -97 66 -100 -6 -5 -12 2 -99 129 -74 107 -59 94 33 -29z m1259 71 c-7
-18 -16 -32 -20 -32 -4 0 0 16 9 35 20 42 27 41 11 -3z m-1233 -57 c32 -42 55
-78 53 -81 -3 -3 -27 26 -53 63 -27 37 -53 74 -58 81 -5 6 -7 12 -5 12 3 0 31
-34 63 -75z m1469 63 c-32 -52 -127 -178 -131 -174 -5 5 125 186 134 186 2 0
1 -6 -3 -12z m-1438 -53 c15 -20 25 -38 22 -40 -3 -3 -17 13 -32 35 -33 49
-27 52 10 5z m25 18 c13 -16 12 -17 -3 -4 -10 7 -18 15 -18 17 0 8 8 3 21 -13z
m1413 -15 c-24 -41 -97 -138 -101 -134 -5 4 97 146 104 146 2 0 1 -6 -3 -12z
m-24 -88 c-12 -16 -24 -30 -26 -30 -7 0 5 20 24 43 24 27 25 20 2 -13z m-1642
-125 c39 -33 71 -64 71 -68 2 -16 -16 -2 -105 82 -95 90 -80 84 34 -14z m71
-22 c2 -2 1 -6 -2 -9 -4 -4 -37 24 -74 61 l-68 68 70 -58 c39 -33 72 -60 74
-62z m1771 71 c-59 -60 -144 -132 -139 -116 4 11 169 161 179 162 2 0 -16 -21
-40 -46z m-1805 -4 c16 -16 26 -30 22 -30 -8 0 -57 46 -57 54 0 11 5 7 35 -24z
m1772 -66 c-38 -36 -71 -63 -74 -60 -3 2 12 20 33 38 21 18 52 45 69 60 59 53
39 26 -28 -38z m23 -19 c-19 -19 -39 -35 -44 -35 -10 0 63 69 73 70 3 0 -10
-16 -29 -35z m-2080 -111 c0 -2 -9 0 -20 6 -11 6 -20 13 -20 16 0 2 9 0 20 -6
11 -6 20 -13 20 -16z m168 -57 c7 -5 11 -12 9 -14 -6 -5 -157 85 -157 94 0 5
126 -63 148 -80z m-12 36 c-5 -5 -76 35 -76 43 0 2 18 -5 41 -16 23 -12 38
-24 35 -27z m2134 33 c0 -8 -192 -118 -197 -113 -4 5 27 25 137 86 60 33 60
33 60 27z m-2187 -65 c43 -23 76 -45 73 -48 -5 -6 -166 85 -166 94 0 6 4 5 93
-46z m2157 14 c0 -8 -141 -88 -146 -83 -3 3 28 24 68 46 80 45 78 44 78 37z
m-10 -39 c0 -7 -82 -57 -86 -53 -3 2 14 16 38 30 46 28 48 29 48 23z m-2205
-158 c7 -7 2 -8 -15 -3 -14 4 -29 12 -35 17 -7 7 -2 8 15 3 14 -4 30 -12 35
-17z m-37 -14 c50 -14 90 -34 68 -34 -14 0 -156 52 -156 57 0 3 7 2 15 -1 9
-3 41 -13 73 -22z m2372 -1 c-120 -45 -200 -71 -200 -65 0 9 176 70 200 70 13
0 13 0 0 -5z m-2358 -36 c37 -11 65 -24 63 -27 -4 -7 -164 45 -175 57 -6 6 14
1 112 -30z m2367 8 c-10 -10 -181 -66 -186 -61 -7 6 -6 7 97 40 77 25 97 29
89 21z m-74 -60 c-16 -8 -39 -14 -50 -14 -11 1 -2 7 20 14 52 17 68 17 30 0z"/>
<path d="M2322 3227 c-51 -5 -91 -11 -89 -13 2 -2 48 -8 103 -14 74 -7 100 -6
106 3 13 21 9 37 -9 36 -10 -1 -60 -6 -111 -12z"/>
<path d="M3170 3233 c0 -5 6 -17 13 -26 11 -15 23 -15 112 -6 55 6 101 12 103
13 1 2 -32 7 -75 10 -43 4 -95 9 -115 12 -21 3 -38 2 -38 -3z"/>
<path d="M2215 3130 c-66 -4 -74 -7 -45 -12 19 -4 78 -10 131 -13 84 -5 97 -4
103 10 3 9 6 19 6 21 0 5 -85 3 -195 -6z"/>
<path d="M3217 3121 c5 -21 8 -22 117 -15 119 7 186 22 105 23 -25 1 -87 4
-137 7 -90 7 -91 7 -85 -15z"/>
<path d="M840 2926 c-113 -102 -206 -192 -208 -200 -2 -8 13 -71 34 -140 35
-121 38 -126 64 -126 35 0 60 -28 60 -68 0 -37 -33 -72 -67 -72 -13 0 -23 -1
-23 -3 0 -1 -16 -56 -35 -121 -19 -66 -35 -125 -35 -133 0 -11 367 -13 2185
-13 l2185 0 -5 23 c-4 12 -21 71 -38 131 -31 105 -33 110 -64 118 -81 21 -84
120 -4 137 33 6 34 8 72 136 l39 130 -53 50 c-85 82 -356 325 -363 325 -3 0
30 -40 75 -89 182 -199 241 -266 241 -273 0 -5 -9 -8 -20 -8 -21 0 -36 12
-210 169 -58 52 -118 106 -135 120 l-30 26 20 -25 c11 -13 71 -80 133 -148 61
-68 112 -128 112 -133 0 -5 -13 -9 -28 -9 -22 0 -57 27 -162 122 -73 67 -131
117 -129 111 2 -6 39 -48 81 -94 42 -47 86 -97 98 -112 l21 -27 -38 0 c-33 0
-48 9 -118 71 -44 40 -89 79 -100 88 -23 19 74 -96 104 -123 31 -28 26 -36
-23 -36 -41 0 -51 5 -107 58 -34 31 -57 48 -51 37 5 -11 24 -33 41 -49 17 -17
31 -33 31 -38 0 -4 -22 -8 -49 -8 -34 0 -57 6 -77 22 -16 12 -23 15 -16 8 6
-8 12 -18 12 -22 0 -4 -652 -8 -1450 -8 -797 0 -1450 3 -1450 7 0 3 8 16 18
27 10 12 4 9 -16 -7 -26 -21 -44 -27 -83 -27 -27 0 -49 3 -49 7 0 4 21 29 47
55 65 66 45 60 -27 -8 -55 -53 -60 -55 -105 -52 l-47 3 71 78 c39 42 71 80 71
83 0 3 -43 -33 -95 -80 -81 -74 -100 -86 -130 -86 -19 0 -35 4 -35 9 0 8 38
51 169 195 57 62 20 33 -116 -90 -99 -89 -132 -114 -155 -114 -15 0 -28 3 -28
8 0 4 59 72 131 150 72 79 129 145 127 146 -1 2 -79 -66 -173 -150 -117 -106
-177 -154 -193 -154 -13 0 -22 4 -20 9 2 5 59 72 129 148 181 199 202 223 197
223 -2 0 -96 -83 -208 -184z m4116 -243 c-14 -45 -56 -187 -56 -190 0 -2 -9
-3 -19 -3 -34 0 -72 -41 -78 -86 -4 -33 -1 -45 22 -72 15 -18 33 -32 40 -32
26 0 43 -29 65 -111 12 -45 24 -88 27 -96 4 -11 -348 -13 -2141 -13 -1672 0
-2146 3 -2146 12 0 7 12 54 26 104 23 80 30 93 51 99 71 18 97 105 48 164 -14
16 -35 31 -47 33 -18 2 -27 19 -50 93 -15 50 -28 96 -28 103 0 9 436 12 2146
12 2039 0 2145 -1 2140 -17z"/>
<path d="M692 2678 c3 -8 31 -15 74 -18 l69 -5 -68 -8 c-91 -12 -84 -30 14
-37 68 -5 71 -6 34 -12 -22 -4 -52 -8 -67 -8 -18 0 -28 -5 -28 -15 0 -12 13
-15 59 -15 33 0 63 -4 66 -10 4 -6 -17 -10 -54 -10 -34 0 -61 -4 -61 -9 0 -16
13 -20 68 -22 62 -3 95 -19 39 -19 -35 0 -36 -1 -25 -20 8 -12 25 -21 43 -21
29 -2 29 -2 4 -6 -42 -6 -27 -41 20 -46 l36 -4 -36 -1 c-27 -2 -38 -7 -42 -21
-4 -15 1 -21 22 -24 l26 -4 -26 -2 c-14 0 -34 -10 -44 -21 -18 -20 -17 -20 20
-20 57 0 34 -12 -37 -19 -81 -8 -92 -31 -14 -31 31 0 56 -4 56 -10 0 -6 -27
-10 -60 -10 -47 0 -60 -3 -60 -15 0 -12 13 -15 55 -15 30 0 55 -4 55 -10 0 -6
-26 -10 -59 -10 -41 0 -60 -4 -64 -14 -4 -11 11 -16 66 -22 l72 -9 -74 -5
c-47 -3 -76 -10 -79 -17 -3 -10 426 -13 2122 -13 1241 0 2126 4 2126 9 0 15
-28 21 -98 22 l-67 2 73 9 c89 12 92 32 6 36 -85 4 -94 22 -10 22 50 0 67 3
64 13 -3 7 -28 13 -66 15 -77 4 -82 22 -7 22 42 0 55 3 55 15 0 11 -12 15 -47
16 -27 1 -59 5 -73 9 -22 7 -21 8 13 9 20 1 37 5 37 9 0 16 -24 32 -50 33 -24
2 -24 2 -2 6 36 7 23 37 -18 44 l-35 6 35 4 c45 5 56 38 13 40 -27 1 -27 1 6
9 18 4 40 15 49 24 15 15 13 16 -28 17 -38 1 -41 2 -20 9 14 4 46 8 73 9 35 1
47 5 47 16 0 12 -13 15 -57 15 -72 0 -59 18 16 22 61 3 86 28 29 28 -18 0 -51
4 -73 8 -37 6 -34 7 34 12 95 6 105 25 19 36 l-63 9 69 5 c43 3 71 10 74 18 3
9 -426 12 -2123 12 -1697 0 -2126 -3 -2123 -12z m771 -102 c106 -45 115 -180
15 -232 -18 -9 -63 -19 -100 -22 l-68 -5 0 -64 0 -64 -52 3 -53 3 -3 198 -2
197 115 0 c76 0 127 -5 148 -14z m460 -10 c41 -20 67 -60 67 -102 0 -19 -13
-40 -43 -69 l-43 -41 58 -74 c31 -41 57 -78 58 -82 0 -5 -24 -8 -54 -8 l-54 0
-68 92 c-40 53 -64 93 -57 95 22 8 76 48 87 65 17 28 -7 65 -53 79 -71 21 -71
20 -71 -166 l0 -165 -50 0 -50 0 0 201 0 201 118 -4 c89 -2 126 -7 155 -22z
m491 8 c4 -9 4 -25 1 -35 -6 -17 -18 -19 -101 -19 l-95 0 3 -42 3 -43 70 -3
c39 -2 74 -7 79 -12 5 -5 6 -20 2 -35 -7 -26 -8 -26 -79 -24 l-72 2 -3 -51 -3
-52 101 0 101 0 -3 -32 -3 -33 -147 -3 -148 -3 0 201 0 200 144 0 c124 0 145
-2 150 -16z m293 -94 c32 -60 60 -110 63 -110 5 0 55 86 105 183 19 37 20 38
70 35 l50 -3 6 -80 c4 -44 10 -133 14 -197 l6 -118 -49 0 -49 0 -9 133 -9 132
-51 -90 c-50 -89 -52 -90 -92 -93 l-41 -3 -48 93 -48 93 -2 -40 c-2 -22 -5
-82 -9 -132 l-6 -93 -45 0 -45 0 6 133 c4 72 9 162 12 200 l6 67 54 0 53 0 58
-110z m543 -90 l0 -200 -50 0 -50 0 0 200 0 200 50 0 50 0 0 -200z m232 55 c3
-134 5 -146 26 -167 17 -17 34 -23 67 -23 74 0 79 12 85 183 l5 147 53 3 54 3
-4 -155 c-3 -173 -10 -193 -79 -229 -50 -26 -206 -21 -246 9 -53 39 -63 74
-63 232 l0 142 49 0 49 0 4 -145z m595 35 c32 -60 60 -110 63 -110 3 0 32 50
64 110 l60 111 50 -3 51 -3 7 -115 c3 -63 9 -152 12 -197 l6 -83 -48 0 -49 0
-6 68 c-4 37 -7 96 -7 132 -1 60 -2 64 -16 45 -8 -11 -33 -53 -55 -92 -39 -71
-41 -73 -80 -73 l-39 0 -47 93 -48 92 -9 -132 -9 -133 -45 0 -44 0 6 118 c4
64 9 154 12 200 l6 82 53 0 54 0 58 -110z"/>
<path d="M1310 2460 c0 -81 8 -90 71 -71 45 14 65 45 55 86 -7 28 -56 55 -101
55 -24 0 -25 -2 -25 -70z"/>
<path d="M2216 3039 c-61 -5 -115 -10 -120 -12 -6 -2 41 -7 104 -11 63 -4 134
-9 158 -13 40 -5 42 -4 42 21 0 30 5 29 -184 15z"/>
<path d="M3227 3031 c-3 -12 -2 -23 1 -25 4 -2 77 2 162 8 l155 12 -85 7
c-244 21 -227 21 -233 -2z"/>
<path d="M2190 2946 c-178 -11 -182 -12 -105 -18 44 -4 150 -11 235 -14 l155
-7 -24 27 c-16 16 -34 25 -50 24 -14 0 -109 -6 -211 -12z"/>
<path d="M3175 2934 l-29 -27 174 8 c289 12 324 20 130 28 -91 5 -183 10 -205
13 -33 3 -45 0 -70 -22z"/>
<path d="M1621 2013 c1 -5 38 -42 83 -83 44 -41 176 -163 291 -271 116 -108
346 -323 513 -479 l303 -283 31 29 c17 16 39 36 48 44 9 8 46 42 81 75 72 69
914 854 993 927 l51 47 -1197 1 c-659 0 -1197 -3 -1197 -7z m615 -128 c19 -26
17 -75 -3 -97 -16 -18 -16 -22 11 -69 l28 -51 -28 4 c-23 2 -35 13 -56 53
l-27 50 24 23 c19 17 22 27 16 45 -4 12 -18 23 -30 25 -20 3 -21 0 -21 -97 l0
-101 -25 0 -25 0 0 121 0 121 61 -4 c45 -3 65 -10 75 -23z m214 6 c0 -16 -8
-20 -42 -23 -38 -3 -43 -6 -43 -28 0 -21 5 -26 33 -28 24 -2 32 -8 32 -23 0
-15 -7 -19 -35 -19 -32 0 -35 -2 -35 -30 0 -29 2 -30 45 -30 38 0 45 -3 45
-20 0 -18 -7 -20 -65 -20 l-65 0 0 120 0 120 65 0 c58 0 65 -2 65 -19z m202
-101 l35 -120 -24 0 c-15 0 -27 8 -32 23 -7 18 -16 23 -39 21 -37 -2 -52 -11
-52 -30 0 -8 -10 -14 -25 -14 l-24 0 14 48 c8 26 24 80 36 120 20 66 24 72 49
72 25 0 28 -5 62 -120z m128 20 l0 -100 40 0 c33 0 40 -3 40 -20 0 -18 -7 -20
-65 -20 l-65 0 0 113 c0 63 3 117 7 120 3 4 15 7 25 7 16 0 18 -10 18 -100z
m351 8 c43 -138 44 -148 20 -148 -14 0 -25 9 -31 24 -6 16 -15 23 -27 21 -10
-2 -28 -4 -40 -4 -16 -1 -23 -7 -23 -21 0 -15 -7 -20 -25 -20 -29 0 -28 -2
-15 36 5 16 21 69 35 117 25 84 28 88 53 85 24 -3 29 -12 53 -90z m137 -10 l3
-98 39 0 c33 0 40 -3 40 -20 0 -18 -7 -20 -65 -20 l-65 0 0 121 c0 119 0 120
23 117 21 -3 22 -8 25 -100z m262 83 c0 -16 -8 -20 -42 -23 -38 -3 -43 -6 -43
-28 0 -21 5 -26 33 -28 24 -2 32 -8 32 -23 0 -15 -7 -19 -35 -19 -32 0 -35 -2
-35 -30 0 -29 2 -30 45 -30 38 0 45 -3 45 -20 0 -18 -7 -20 -65 -20 l-65 0 0
120 0 120 65 0 c58 0 65 -2 65 -19z m-228 -363 c-23 -23 -982 -21 -982 2 0 5
223 9 496 9 336 0 493 -4 486 -11z m-92 -80 c-59 -14 -731 -14 -790 0 -33 7
72 10 395 10 323 0 428 -3 395 -10z m-105 -79 c-82 -9 -464 -11 -561 -1 -73 6
-65 7 91 12 228 7 553 -1 470 -11z m-25 -71 c-34 -16 -496 -16 -530 0 -19 8
45 11 265 11 222 0 284 -3 265 -11z m-90 -79 c-46 -12 -305 -12 -350 0 -24 6
31 9 175 9 143 0 199 -3 175 -9z m-49 -71 c-8 -9 -48 -13 -126 -13 -78 0 -118
4 -127 13 -10 9 16 12 127 12 111 0 136 -2 126 -12z m-69 -80 c-6 -6 -32 -11
-57 -11 -25 0 -51 5 -57 11 -9 9 4 12 57 12 53 0 66 -3 57 -12z"/>
<path d="M2572 1799 c-8 -33 -8 -41 5 -46 24 -9 35 11 28 51 -9 47 -20 46 -33
-5z"/>
<path d="M3062 1810 c-12 -48 -5 -65 21 -54 20 7 20 16 3 64 l-13 34 -11 -44z"/>
</g>
</svg>
